<svg width="48" height="48" viewBox="0 0 48 48" fill="none" xmlns="http://www.w3.org/2000/svg">
<g filter="url(#filter0_d_215_7812)">
<rect x="10" y="6" width="28" height="28" rx="14" fill="white" shape-rendering="crispEdges"/>
<mask id="mask0_215_7812" style="mask-type:alpha" maskUnits="userSpaceOnUse" x="14" y="10" width="20" height="20">
<rect x="14" y="10" width="20" height="20" fill="#D9D9D9"/>
</mask>
<g mask="url(#mask0_215_7812)">
<path d="M21.9165 23.75L27.7498 20L21.9165 16.25V23.75ZM17.3332 26.6667C16.8748 26.6667 16.4825 26.5035 16.1561 26.1771C15.8297 25.8507 15.6665 25.4583 15.6665 25V15C15.6665 14.5417 15.8297 14.1493 16.1561 13.8229C16.4825 13.4965 16.8748 13.3333 17.3332 13.3333H30.6665C31.1248 13.3333 31.5172 13.4965 31.8436 13.8229C32.17 14.1493 32.3332 14.5417 32.3332 15V25C32.3332 25.4583 32.17 25.8507 31.8436 26.1771C31.5172 26.5035 31.1248 26.6667 30.6665 26.6667H17.3332Z" fill="#799EFF"/>
</g>
</g>
<defs>
<filter id="filter0_d_215_7812" x="0" y="0" width="48" height="48" filterUnits="userSpaceOnUse" color-interpolation-filters="sRGB">
<feFlood flood-opacity="0" result="BackgroundImageFix"/>
<feColorMatrix in="SourceAlpha" type="matrix" values="0 0 0 0 0 0 0 0 0 0 0 0 0 0 0 0 0 0 127 0" result="hardAlpha"/>
<feOffset dy="4"/>
<feGaussianBlur stdDeviation="5"/>
<feComposite in2="hardAlpha" operator="out"/>
<feColorMatrix type="matrix" values="0 0 0 0 0.226206 0 0 0 0 0.253842 0 0 0 0 0.326389 0 0 0 0.15 0"/>
<feBlend mode="normal" in2="BackgroundImageFix" result="effect1_dropShadow_215_7812"/>
<feBlend mode="normal" in="SourceGraphic" in2="effect1_dropShadow_215_7812" result="shape"/>
</filter>
</defs>
</svg>
