<svg xmlns="http://www.w3.org/2000/svg" width="100%" height="100%" viewBox="0 0 20 20" fill="none">
  <mask id="a" style="mask-type:alpha" maskUnits="userSpaceOnUse" x="0" y="0" width="20" height="20">
    <path fill="#D9D9D9" d="M0 0h20v20H0z"/>
  </mask>
  <g mask="url(#a)">
    <path d="M15 9.166c-1.153 0-2.135-.406-2.948-1.218-.812-.813-1.219-1.796-1.219-2.948 0-1.14.403-2.118 1.209-2.938.805-.82 1.791-1.229 2.958-1.229 1.153 0 2.135.406 2.948 1.219.812.812 1.219 1.795 1.219 2.948 0 1.152-.407 2.135-1.22 2.948-.812.812-1.794 1.218-2.947 1.218Zm-.417-3.333h.834V2.5h-.834v3.333ZM3.333 16.666a.806.806 0 0 1-.593-.24.807.807 0 0 1-.24-.593V9.166l1.75-5c.083-.25.233-.451.448-.604.215-.153.455-.229.719-.229h4a5.307 5.307 0 0 0-.188.813A5.75 5.75 0 0 0 9.167 5H5.708l-.875 2.5H9.73a5.57 5.57 0 0 0 1.209 1.666H4.167v4.167h11.666V10.77a5.854 5.854 0 0 0 1.667-.5v5.563c0 .236-.08.434-.24.594a.806.806 0 0 1-.593.24h-.834a.806.806 0 0 1-.593-.24.807.807 0 0 1-.24-.594V15H5v.833c0 .236-.08.434-.24.594a.806.806 0 0 1-.593.24h-.834ZM15 7.5a.4.4 0 0 0 .292-.125.4.4 0 0 0 0-.584.4.4 0 0 0-.584 0 .4.4 0 0 0 0 .584A.4.4 0 0 0 15 7.5Zm-8.75 5c.347 0 .642-.122.885-.365s.365-.538.365-.885c0-.348-.122-.643-.365-.886A1.205 1.205 0 0 0 6.25 10c-.347 0-.642.121-.885.364A1.205 1.205 0 0 0 5 11.25c0 .347.122.642.365.885s.538.365.885.365Zm7.5 0c.347 0 .642-.122.885-.365.244-.243.365-.538.365-.885 0-.07-.004-.14-.01-.209a.766.766 0 0 0-.053-.208c-.374 0-.74-.035-1.093-.104a4.88 4.88 0 0 1-1.01-.313c-.112.111-.195.24-.25.386a1.25 1.25 0 0 0-.084.448c0 .347.121.642.365.885.243.243.538.365.885.365Z" fill="currentColor"/>
  </g>
</svg>
