<svg xmlns="http://www.w3.org/2000/svg" width="100%" height="100%" viewBox="0 0 16 16" fill="none">
  <mask id="a" style="mask-type:alpha" maskUnits="userSpaceOnUse" x="0" y="0" width="16" height="16">
    <path fill="#D9D9D9" d="M0 0h16v16H0z"/>
  </mask>
  <g mask="url(#a)">
    <path d="m7.067 11.067 4.7-4.7-.934-.933L7.067 9.2l-1.9-1.9-.934.933 2.834 2.834Zm.933 3.6a6.492 6.492 0 0 1-2.6-.525 6.732 6.732 0 0 1-2.117-1.425A6.732 6.732 0 0 1 1.858 10.6 6.492 6.492 0 0 1 1.333 8c0-.922.175-1.789.525-2.6a6.732 6.732 0 0 1 1.425-2.117c.6-.6 1.306-1.075 2.117-1.424A6.492 6.492 0 0 1 8 1.333c.922 0 1.789.175 2.6.526.811.35 1.517.825 2.117 1.425A6.73 6.73 0 0 1 14.142 5.4c.35.811.525 1.678.525 2.6 0 .922-.175 1.789-.525 2.6a6.732 6.732 0 0 1-1.425 2.117c-.6.6-1.306 1.075-2.117 1.425a6.492 6.492 0 0 1-2.6.525Zm0-1.333c1.489 0 2.75-.517 3.783-1.55 1.034-1.034 1.55-2.295 1.55-3.784 0-1.489-.516-2.75-1.55-3.783C10.75 3.184 9.49 2.667 8 2.667c-1.489 0-2.75.517-3.783 1.55C3.183 5.25 2.667 6.51 2.667 8c0 1.49.516 2.75 1.55 3.784C5.25 12.816 6.51 13.334 8 13.334Z" fill="currentColor"/>
  </g>
</svg>
