<svg xmlns="http://www.w3.org/2000/svg" width="current" height="current" viewBox="0 0 14 14" fill="none">
  <mask id="a" style="mask-type:alpha" maskUnits="userSpaceOnUse" x="0" y="0" width="14" height="14">
    <path fill="#D9D9D9" d="M0 0h14v14H0z"/>
  </mask>
  <g mask="url(#a)">
    <path d="m8.925 9.742.817-.817-2.159-2.158V4.083H6.417v3.15l2.508 2.509ZM7 12.833a5.68 5.68 0 0 1-2.275-.46 5.89 5.89 0 0 1-1.852-1.246 5.89 5.89 0 0 1-1.247-1.852A5.68 5.68 0 0 1 1.166 7c0-.807.154-1.565.46-2.275a5.89 5.89 0 0 1 1.247-1.852 5.89 5.89 0 0 1 1.852-1.247A5.68 5.68 0 0 1 7 1.166a5.68 5.68 0 0 1 2.275.46 5.89 5.89 0 0 1 1.852 1.247 5.89 5.89 0 0 1 1.247 1.852c.306.71.46 1.468.46 2.275a5.68 5.68 0 0 1-.46 2.275 5.89 5.89 0 0 1-1.247 1.852 5.89 5.89 0 0 1-1.852 1.247 5.68 5.68 0 0 1-2.275.46Zm0-1.166c1.293 0 2.394-.455 3.303-1.364.91-.909 1.364-2.01 1.364-3.303 0-1.293-.455-2.394-1.364-3.303-.909-.91-2.01-1.364-3.303-1.364-1.293 0-2.394.455-3.303 1.364-.909.909-1.364 2.01-1.364 3.303 0 1.293.455 2.394 1.364 3.303.909.91 2.01 1.364 3.303 1.364Z" fill="currentColor"/>
  </g>
</svg>
