<svg xmlns="http://www.w3.org/2000/svg" width="current" height="current" viewBox="0 0 24 24" fill="none">
  <mask id="a" style="mask-type:alpha" maskUnits="userSpaceOnUse" x="0" y="0" width="24" height="24">
    <path fill="#D9D9D9" d="M0 0h24v24H0z"/>
  </mask>
  <g mask="url(#a)">
    <path d="M9 18c-.55 0-1.02-.196-1.412-.587A1.926 1.926 0 0 1 7 16V4c0-.55.196-1.02.588-1.413A1.926 1.926 0 0 1 9 2h9c.55 0 1.02.196 1.413.587.39.393.587.863.587 1.413v12c0 .55-.196 1.02-.587 1.413A1.926 1.926 0 0 1 18 18H9Zm0-2h9V4H9v12Zm-4 6c-.55 0-1.02-.196-1.413-.587A1.926 1.926 0 0 1 3 20V6h2v14h11v2H5Z" fill="currentColor"/>
  </g>
</svg>
