<svg xmlns="http://www.w3.org/2000/svg" width="100%" height="100%" viewBox="0 0 20 20" fill="none">
  <mask id="a" style="mask-type:alpha" maskUnits="userSpaceOnUse" x="0" y="0" width="20" height="20">
    <path fill="#D9D9D9" d="M0 0h20v20H0z"/>
  </mask>
  <g mask="url(#a)">
    <path d="M10 17.5c-.25 0-.49-.045-.719-.135a1.79 1.79 0 0 1-.614-.407l-5.584-5.604A4.551 4.551 0 0 1 2.01 9.688a5.644 5.644 0 0 1-.343-1.959c0-1.43.465-2.66 1.395-3.687.931-1.028 2.09-1.542 3.48-1.542.666 0 1.295.132 1.885.396C9.017 3.16 9.542 3.528 10 4c.444-.472.962-.84 1.552-1.104a4.567 4.567 0 0 1 1.886-.396c1.388 0 2.552.514 3.49 1.542.937 1.027 1.405 2.25 1.405 3.666 0 .68-.118 1.334-.354 1.959a4.81 4.81 0 0 1-1.062 1.666l-5.605 5.625A1.818 1.818 0 0 1 10 17.5Zm.833-10.833c.14 0 .271.034.396.104.125.07.222.16.292.27l1.416 2.126h3.459a3.763 3.763 0 0 0 .292-1.458c-.028-.959-.348-1.782-.959-2.47-.611-.687-1.375-1.03-2.291-1.03-.431 0-.844.083-1.24.25a2.91 2.91 0 0 0-1.031.729l-.563.604a.826.826 0 0 1-.604.27.826.826 0 0 1-.333-.072.942.942 0 0 1-.292-.198l-.563-.604a3.188 3.188 0 0 0-1.02-.75 2.932 2.932 0 0 0-1.25-.271c-.917 0-1.68.35-2.292 1.052-.611.701-.917 1.531-.917 2.49 0 .25.021.496.063.739.041.243.11.483.208.719H7.5a.8.8 0 0 1 .396.104c.125.07.222.16.291.27l.73 1.084 1.125-3.375a.855.855 0 0 1 .302-.417.788.788 0 0 1 .49-.166Zm.25 2.708L9.958 12.75a.834.834 0 0 1-.312.417.832.832 0 0 1-.5.166.804.804 0 0 1-.396-.104.786.786 0 0 1-.292-.27l-1.416-2.126H4.917l4.937 4.938a.204.204 0 0 0 .073.052.23.23 0 0 0 .073.01.229.229 0 0 0 .073-.01.205.205 0 0 0 .073-.052l4.916-4.938H12.5a.803.803 0 0 1-.396-.104.981.981 0 0 1-.312-.27l-.709-1.084Z" fill="currentColor"/>
  </g>
</svg>
