<svg xmlns="http://www.w3.org/2000/svg" width="100%" height="100%" viewBox="0 0 24 24" fill="none">
  <mask id="a" style="mask-type:alpha" maskUnits="userSpaceOnUse" x="0" y="0" width="24" height="24">
    <path fill="#D9D9D9" d="M0 0h24v24H0z"/>
  </mask>
  <g mask="url(#a)">
    <path d="M12 21.325c1.25-1.183 2.23-2.32 2.938-3.412C15.646 16.82 16 15.9 16 15.15c0-1.15-.387-2.13-1.162-2.938C14.063 11.405 13.117 11 12 11s-2.062.404-2.837 1.213C8.388 13.02 8 14 8 15.15c0 .75.354 1.67 1.063 2.763.708 1.091 1.687 2.229 2.937 3.412ZM12 24c-2.017-1.717-3.52-3.308-4.512-4.775C6.496 17.758 6 16.4 6 15.15c0-1.7.58-3.15 1.738-4.35C8.896 9.6 10.317 9 12 9c1.683 0 3.104.6 4.262 1.8C17.421 12 18 13.45 18 15.15c0 1.25-.496 2.608-1.488 4.075C15.521 20.692 14.017 22.283 12 24Zm0-7.5c.417 0 .77-.146 1.063-.438.291-.291.437-.645.437-1.062 0-.417-.146-.77-.438-1.063A1.446 1.446 0 0 0 12 13.5c-.417 0-.77.146-1.063.438A1.446 1.446 0 0 0 10.5 15c0 .417.146.77.438 1.063.291.291.645.437 1.062.437ZM8.45 7.45l-1.4-1.4a6.916 6.916 0 0 1 2.275-1.525A6.958 6.958 0 0 1 12 4a6.917 6.917 0 0 1 4.95 2.05l-1.4 1.4a4.812 4.812 0 0 0-1.638-1.088A5.133 5.133 0 0 0 12 6a5.12 5.12 0 0 0-1.912.362A4.812 4.812 0 0 0 8.45 7.45Zm-2.8-2.825-1.425-1.4A10.891 10.891 0 0 1 7.8.825 10.907 10.907 0 0 1 12 0c1.467 0 2.867.275 4.2.825 1.333.55 2.525 1.35 3.575 2.4l-1.4 1.425A8.99 8.99 0 0 0 12 2c-1.2 0-2.346.225-3.437.675a8.86 8.86 0 0 0-2.913 1.95Z" fill="currentColor"/>
  </g>
</svg>
