<svg xmlns="http://www.w3.org/2000/svg" width="100%" height="100%" viewBox="0 0 21 20" fill="none">
  <mask id="a" style="mask-type:alpha" maskUnits="userSpaceOnUse" x="0" y="0" width="21" height="20">
    <path fill="#D9D9D9" d="M.125 0h20v20h-20z"/>
  </mask>
  <g mask="url(#a)">
    <path d="M5.125 11.667c0 .722.146 1.406.437 2.052a5.061 5.061 0 0 0 1.25 1.698.966.966 0 0 1-.02-.188v-.187c0-.445.083-.861.25-1.25.166-.39.41-.743.729-1.063l2.354-2.312 2.354 2.312c.32.32.563.674.73 1.063.166.389.25.805.25 1.25v.187a.965.965 0 0 1-.021.188 5.063 5.063 0 0 0 1.25-1.698 4.93 4.93 0 0 0 .437-2.052c0-.695-.129-1.351-.385-1.97a5.086 5.086 0 0 0-1.115-1.655 3.292 3.292 0 0 1-1.813.542 3.236 3.236 0 0 1-2.24-.855A3.256 3.256 0 0 1 8.48 5.625c-.542.458-1.02.934-1.437 1.427a9.662 9.662 0 0 0-1.052 1.5 6.938 6.938 0 0 0-.646 1.552 5.848 5.848 0 0 0-.219 1.563Zm5 1.083-1.188 1.167a1.65 1.65 0 0 0-.354.52 1.519 1.519 0 0 0-.125.605c0 .444.164.826.49 1.146.326.319.719.479 1.177.479.458 0 .85-.16 1.177-.48.327-.319.49-.7.49-1.145 0-.223-.042-.427-.125-.615a1.686 1.686 0 0 0-.354-.51l-1.188-1.167Zm0-10.25v2.75c0 .472.163.868.49 1.188.326.319.725.479 1.197.479.25 0 .483-.052.698-.157a1.66 1.66 0 0 0 .573-.468l.375-.459a6.42 6.42 0 0 1 2.438 2.438 6.71 6.71 0 0 1 .896 3.396c0 1.86-.646 3.437-1.938 4.729-1.291 1.291-2.868 1.937-4.729 1.937-1.861 0-3.438-.645-4.73-1.937-1.29-1.292-1.937-2.868-1.937-4.73 0-1.791.601-3.492 1.802-5.104 1.202-1.61 2.823-2.965 4.865-4.062Z" fill="currentColor"/>
  </g>
</svg>
