<svg width="current" height="current" viewBox="0 0 25 24" fill="none" xmlns="http://www.w3.org/2000/svg">
  <mask id="a" style="mask-type:alpha" maskUnits="userSpaceOnUse" x="0" y="0" width="25" height="24">
    <path fill="#D9D9D9" d="M.75 0h24v24h-24z"/>
  </mask>
  <g mask="url(#a)">
    <path d="M.75 18v-1.575c0-.717.367-1.3 1.1-1.75.733-.45 1.7-.675 2.9-.675.217 0 .425.004.625.012.2.009.392.03.575.063-.233.35-.408.717-.525 1.1a4.098 4.098 0 0 0-.175 1.2V18H.75Zm6 0v-1.625c0-.533.146-1.02.438-1.463.291-.441.704-.829 1.237-1.162.533-.333 1.17-.583 1.912-.75.742-.167 1.546-.25 2.413-.25.883 0 1.696.083 2.438.25.741.167 1.379.417 1.912.75.533.333.942.72 1.225 1.162.283.442.425.93.425 1.463V18h-12Zm13.5 0v-1.625a4.46 4.46 0 0 0-.163-1.225 3.913 3.913 0 0 0-.487-1.075 4.29 4.29 0 0 1 .563-.063c.191-.008.387-.012.587-.012 1.2 0 2.167.22 2.9.662.733.442 1.1 1.03 1.1 1.763V18h-4.5Zm-15.5-5c-.55 0-1.02-.196-1.413-.588A1.926 1.926 0 0 1 2.75 11c0-.567.196-1.042.587-1.425A1.947 1.947 0 0 1 4.75 9c.567 0 1.042.192 1.425.575.383.383.575.858.575 1.425 0 .55-.192 1.02-.575 1.412A1.914 1.914 0 0 1 4.75 13Zm16 0c-.55 0-1.02-.196-1.413-.588A1.926 1.926 0 0 1 18.75 11c0-.567.196-1.042.587-1.425A1.947 1.947 0 0 1 20.75 9c.567 0 1.042.192 1.425.575.383.383.575.858.575 1.425 0 .55-.192 1.02-.575 1.412A1.914 1.914 0 0 1 20.75 13Zm-8-1a2.893 2.893 0 0 1-2.125-.875A2.893 2.893 0 0 1 9.75 9c0-.85.292-1.563.875-2.138S11.917 6 12.75 6c.85 0 1.563.287 2.137.862.575.575.863 1.288.863 2.138 0 .833-.287 1.542-.863 2.125-.575.583-1.287.875-2.137.875Z" fill="currentColor"/>
  </g>
</svg>
