<svg xmlns="http://www.w3.org/2000/svg" width="current" height="current" viewBox="0 0 24 24" fill="none">
  <mask id="a" style="mask-type:alpha" maskUnits="userSpaceOnUse" x="0" y="0" width="24" height="24">
    <path fill="#D9D9D9" d="M.75 0h24v24h-24z"/>
  </mask>
  <g mask="url(#a)">
    <path d="M12.75 21c-2.3 0-4.304-.762-6.013-2.288C5.03 17.188 4.05 15.283 3.8 13h2.05c.233 1.733 1.004 3.167 2.313 4.3C9.47 18.433 11 19 12.75 19c1.95 0 3.604-.68 4.962-2.038 1.36-1.358 2.038-3.012 2.038-4.962 0-1.95-.68-3.604-2.038-4.963C16.354 5.68 14.7 5 12.75 5a6.75 6.75 0 0 0-3.225.8A7.431 7.431 0 0 0 7 8h2.75v2h-6V4h2v2.35a8.732 8.732 0 0 1 3.113-2.475A8.93 8.93 0 0 1 12.75 3c1.25 0 2.42.237 3.512.712a9.147 9.147 0 0 1 2.85 1.925 9.149 9.149 0 0 1 1.926 2.85A8.707 8.707 0 0 1 21.75 12c0 1.25-.238 2.42-.712 3.512a9.148 9.148 0 0 1-1.925 2.85 9.148 9.148 0 0 1-2.85 1.926A8.707 8.707 0 0 1 12.75 21Zm2.8-4.8-3.8-3.8V7h2v4.6l3.2 3.2-1.4 1.4Z" fill="currentColor"/>
  </g>
</svg>
