<svg width="100%" height="100%" viewBox="0 0 16 16" fill="none" xmlns="http://www.w3.org/2000/svg">
<mask id="mask0_160_2367" style="mask-type:alpha" maskUnits="userSpaceOnUse" x="0" y="0" width="16" height="16">
<rect width="16" height="16" fill="#D9D9D9"/>
</mask>
<g mask="url(#mask0_160_2367)">
<path d="M7.33335 7.33333H8.66669V3.99999H7.33335V7.33333ZM8.00002 9.99999C8.18891 9.99999 8.34724 9.93611 8.47502 9.80833C8.6028 9.68055 8.66669 9.52222 8.66669 9.33333C8.66669 9.14444 8.6028 8.98611 8.47502 8.85833C8.34724 8.73055 8.18891 8.66666 8.00002 8.66666C7.81113 8.66666 7.6528 8.73055 7.52502 8.85833C7.39724 8.98611 7.33335 9.14444 7.33335 9.33333C7.33335 9.52222 7.39724 9.68055 7.52502 9.80833C7.6528 9.93611 7.81113 9.99999 8.00002 9.99999ZM8.00002 14.6667C6.21113 13.1444 4.87502 11.7305 3.99169 10.425C3.10835 9.11944 2.66669 7.91111 2.66669 6.79999C2.66669 5.13333 3.2028 3.80555 4.27502 2.81666C5.34724 1.82777 6.58891 1.33333 8.00002 1.33333C9.41113 1.33333 10.6528 1.82777 11.725 2.81666C12.7972 3.80555 13.3334 5.13333 13.3334 6.79999C13.3334 7.91111 12.8917 9.11944 12.0084 10.425C11.125 11.7305 9.78891 13.1444 8.00002 14.6667Z" fill="currentColor"/>
</g>
</svg>
