<svg xmlns="http://www.w3.org/2000/svg" width="current" height="current" viewBox="0 0 24 24" fill="none">
  <mask id="a" style="mask-type:alpha" maskUnits="userSpaceOnUse" x="0" y="0" width="25" height="24">
    <path fill="#D9D9D9" d="M.5 0h24v24H.5z"/>
  </mask>
  <g mask="url(#a)">
    <path d="M20.65 13H8.5v-2h12.15L19.1 9.45 20.5 8l4 4-4 4-1.4-1.45L20.65 13ZM15.5 9V5h-10v14h10v-4h2v4c0 .55-.196 1.02-.587 1.413A1.926 1.926 0 0 1 15.5 21h-10c-.55 0-1.02-.196-1.412-.587A1.926 1.926 0 0 1 3.5 19V5c0-.55.196-1.02.588-1.413A1.926 1.926 0 0 1 5.5 3h10c.55 0 1.02.196 1.413.587.391.392.587.863.587 1.413v4h-2Z" fill="currentColor"/>
  </g>
</svg>
