<svg xmlns="http://www.w3.org/2000/svg" width="100%" height="100%" viewBox="0 0 20 20" fill="none">
  <mask id="a" style="mask-type:alpha" maskUnits="userSpaceOnUse" x="0" y="0" width="20" height="20">
    <path fill="#D9D9D9" d="M0 0h20v20H0z"/>
  </mask>
  <g mask="url(#a)">
    <path d="M.833 17.5v-15H12.5v15h-5v-3.333H5.833V17.5h-5ZM2.5 15.833h1.667V12.5h5v3.333h1.666V4.167H2.5v11.666Zm1.667-5h1.666V9.167H4.167v1.666Zm0-3.333h1.666V5.833H4.167V7.5ZM7.5 10.833h1.667V9.167H7.5v1.666Zm0-3.333h1.667V5.833H7.5V7.5Zm8.75 5.417-1.167-1.167.896-.917h-2.646V9.167h2.646l-.896-.917 1.167-1.167L19.167 10l-2.917 2.917Z" fill="currentColor"/>
  </g>
</svg>
