<svg xmlns="http://www.w3.org/2000/svg" width="100%" height="100%" viewBox="0 0 20 20" fill="none">
  <mask id="a" style="mask-type:alpha" maskUnits="userSpaceOnUse" x="0" y="0" width="20" height="20">
    <path fill="#D9D9D9" d="M0 0h20v20H0z"/>
  </mask>
  <g mask="url(#a)">
    <path d="M3.333 16.667V8.333h-2.5L10 .833l9.167 7.5h-2.5v.834H15V7.062L10 2.98 5 7.062V15h1.667v1.667H3.333Z" fill="currentColor"/>
    <mask id="b" style="mask-type:alpha" maskUnits="userSpaceOnUse" x="8" y="9" width="10" height="10">
      <path fill="#D9D9D9" d="M8 9h10v10H8z"/>
    </mask>
    <g mask="url(#b)">
      <path d="M11.615 16.083 13 14.698l1.385 1.385.698-.697L13.698 14l1.385-1.385-.698-.698L13 13.302l-1.385-1.385-.698.698L12.302 14l-1.385 1.386.698.697ZM13 18.521a4.42 4.42 0 0 1-1.77-.355 4.553 4.553 0 0 1-1.432-.964 4.552 4.552 0 0 1-.964-1.431A4.42 4.42 0 0 1 8.48 14c0-.633.119-1.223.355-1.772a4.552 4.552 0 0 1 .964-1.431 4.553 4.553 0 0 1 1.431-.964A4.421 4.421 0 0 1 13 9.48a4.42 4.42 0 0 1 1.77.355 4.552 4.552 0 0 1 1.432.964c.406.406.727.883.964 1.431A4.42 4.42 0 0 1 17.52 14a4.42 4.42 0 0 1-.355 1.77 4.552 4.552 0 0 1-.964 1.432 4.552 4.552 0 0 1-1.431.964 4.42 4.42 0 0 1-1.77.354Z" fill="currentColor"/>
    </g>
  </g>
</svg>
