<svg xmlns="http://www.w3.org/2000/svg" width="100%" height="100%" viewBox="0 0 114 114" fill="none">
  <mask id="a" style="mask-type:alpha" maskUnits="userSpaceOnUse" x="0" y="0" width="114" height="114">
    <path fill="#D9D9D9" d="M0 0h114v114H0z"/>
  </mask>
  <g mask="url(#a)">
    <path d="M42.75 59.375h4.75v-9.5h4.75c1.346 0 2.474-.455 3.384-1.366.91-.91 1.366-2.038 1.366-3.384v-4.75c0-1.346-.455-2.474-1.366-3.384-.91-.91-2.038-1.366-3.384-1.366h-9.5v23.75Zm4.75-14.25v-4.75h4.75v4.75H47.5Zm14.25 14.25h9.5c1.346 0 2.474-.455 3.384-1.366.91-.91 1.366-2.038 1.366-3.384v-14.25c0-1.346-.455-2.474-1.366-3.384-.91-.91-2.038-1.366-3.384-1.366h-9.5v23.75Zm4.75-4.75v-14.25h4.75v14.25H66.5Zm14.25 4.75h4.75v-9.5h4.75v-4.75H85.5v-4.75h4.75v-4.75h-9.5v23.75ZM38 85.5c-2.612 0-4.849-.93-6.71-2.79-1.86-1.861-2.79-4.097-2.79-6.71V19c0-2.613.93-4.849 2.79-6.71C33.152 10.43 35.389 9.5 38 9.5h57c2.612 0 4.849.93 6.709 2.79 1.861 1.861 2.791 4.098 2.791 6.71v57c0 2.612-.93 4.849-2.791 6.71-1.86 1.86-4.097 2.79-6.709 2.79H38Zm-19 19c-2.613 0-4.849-.93-6.71-2.791C10.43 99.849 9.5 97.612 9.5 95V28.5H19V95h66.5v9.5H19Z" fill="currentColor"/>
  </g>
</svg>
