<svg xmlns="http://www.w3.org/2000/svg" width="current" height="current" viewBox="0 0 65 64" fill="none">
  <mask id="a" style="mask-type:alpha" maskUnits="userSpaceOnUse" x="0" y="0" width="65" height="64">
    <path fill="#D9D9D9" d="M.5 0h64v64H.5z"/>
  </mask>
  <g mask="url(#a)">
    <path d="M32.5 32c-2.933 0-5.444-1.044-7.533-3.133-2.09-2.09-3.134-4.6-3.134-7.534 0-2.933 1.045-5.444 3.134-7.533 2.089-2.089 4.6-3.133 7.533-3.133 2.933 0 5.444 1.044 7.533 3.133 2.09 2.089 3.134 4.6 3.134 7.533 0 2.934-1.045 5.445-3.134 7.534C37.944 30.956 35.433 32 32.5 32ZM11.167 53.333v-7.466c0-1.511.389-2.9 1.166-4.167a7.776 7.776 0 0 1 3.1-2.9c2.756-1.378 5.556-2.411 8.4-3.1a36.69 36.69 0 0 1 8.667-1.033c2.933 0 5.822.344 8.667 1.033 2.844.689 5.644 1.722 8.4 3.1a7.776 7.776 0 0 1 3.1 2.9 7.81 7.81 0 0 1 1.166 4.167v7.466H11.167Z" fill="currentColor"/>
  </g>
</svg>
