<svg width="100%" height="100%" viewBox="0 0 32 32" fill="none" xmlns="http://www.w3.org/2000/svg">
<mask id="mask0_198_3874" style="mask-type:alpha" maskUnits="userSpaceOnUse" x="0" y="0" width="32" height="32">
<rect width="32" height="32" fill="#D9D9D9"/>
</mask>
<g mask="url(#mask0_198_3874)">
<path d="M25.3333 15.9336C25.3333 13.3336 24.4278 11.128 22.6167 9.31693C20.8056 7.50582 18.6 6.60026 16 6.60026V3.93359C17.6667 3.93359 19.2278 4.25026 20.6833 4.88359C22.1389 5.51693 23.4056 6.37248 24.4833 7.45026C25.5611 8.52804 26.4167 9.79471 27.05 11.2503C27.6833 12.7058 28 14.2669 28 15.9336H25.3333ZM20 15.9336C20 14.8225 19.6111 13.878 18.8333 13.1003C18.0556 12.3225 17.1111 11.9336 16 11.9336V9.26693C17.8444 9.26693 19.4167 9.91693 20.7167 11.2169C22.0167 12.5169 22.6667 14.0891 22.6667 15.9336H20ZM26.6 28.0003C23.8222 28.0003 21.0778 27.3947 18.3667 26.1836C15.6556 24.9725 13.1889 23.2558 10.9667 21.0336C8.74444 18.8114 7.02778 16.3447 5.81667 13.6336C4.60556 10.9225 4 8.17804 4 5.40026C4 5.00026 4.13333 4.66693 4.4 4.40026C4.66667 4.13359 5 4.00026 5.4 4.00026H10.8C11.1111 4.00026 11.3889 4.10582 11.6333 4.31693C11.8778 4.52804 12.0222 4.77804 12.0667 5.06693L12.9333 9.73359C12.9778 10.0891 12.9667 10.3891 12.9 10.6336C12.8333 10.878 12.7111 11.0891 12.5333 11.2669L9.3 14.5336C9.74444 15.3558 10.2722 16.1503 10.8833 16.9169C11.4944 17.6836 12.1667 18.4225 12.9 19.1336C13.5889 19.8225 14.3111 20.4614 15.0667 21.0503C15.8222 21.6392 16.6222 22.178 17.4667 22.6669L20.6 19.5336C20.8 19.3336 21.0611 19.1836 21.3833 19.0836C21.7056 18.9836 22.0222 18.9558 22.3333 19.0003L26.9333 19.9336C27.2444 20.0225 27.5 20.1836 27.7 20.4169C27.9 20.6503 28 20.9114 28 21.2003V26.6003C28 27.0003 27.8667 27.3336 27.6 27.6003C27.3333 27.8669 27 28.0003 26.6 28.0003Z" fill="currentColor"/>
</g>
</svg>
