<svg xmlns="http://www.w3.org/2000/svg" width="current" height="current" viewBox="0 0 24 24" fill="none">
  <mask id="mask0_117_2999" style="mask-type:alpha" maskUnits="userSpaceOnUse" x="0" y="0" width="24" height="24">
    <rect width="24" height="24" fill="#D9D9D9"/>
  </mask>
  <g mask="url(#mask0_117_2999)">
    <path d="M19 11.95C19 9.99995 18.3208 8.34579 16.9625 6.98745C15.6042 5.62912 13.95 4.94995 12 4.94995V2.94995C13.25 2.94995 14.4208 3.18745 15.5125 3.66245C16.6042 4.13745 17.5542 4.77912 18.3625 5.58745C19.1708 6.39578 19.8125 7.34579 20.2875 8.43745C20.7625 9.52912 21 10.7 21 11.95H19ZM15 11.95C15 11.1166 14.7083 10.4083 14.125 9.82495C13.5417 9.24162 12.8333 8.94995 12 8.94995V6.94995C13.3833 6.94995 14.5625 7.43745 15.5375 8.41245C16.5125 9.38745 17 10.5666 17 11.95H15ZM19.95 21C17.8667 21 15.8083 20.5458 13.775 19.6375C11.7417 18.7291 9.89167 17.4416 8.225 15.775C6.55833 14.1083 5.27083 12.2583 4.3625 10.225C3.45417 8.19162 3 6.13328 3 4.04995C3 3.74995 3.1 3.49995 3.3 3.29995C3.5 3.09995 3.75 2.99995 4.05 2.99995H8.1C8.33333 2.99995 8.54167 3.07912 8.725 3.23745C8.90833 3.39578 9.01667 3.58328 9.05 3.79995L9.7 7.29995C9.73333 7.56662 9.725 7.79162 9.675 7.97495C9.625 8.15829 9.53333 8.31662 9.4 8.44995L6.975 10.9C7.30833 11.5166 7.70417 12.1125 8.1625 12.6875C8.62083 13.2625 9.125 13.8166 9.675 14.35C10.1917 14.8666 10.7333 15.3458 11.3 15.7875C11.8667 16.2291 12.4667 16.6333 13.1 17L15.45 14.65C15.6 14.5 15.7958 14.3875 16.0375 14.3125C16.2792 14.2375 16.5167 14.2166 16.75 14.25L20.2 14.95C20.4333 15.0166 20.625 15.1375 20.775 15.3125C20.925 15.4875 21 15.6833 21 15.9V19.95C21 20.25 20.9 20.5 20.7 20.7C20.5 20.9 20.25 21 19.95 21Z" fill="currentColor"/>
  </g>
</svg>