<svg width="current" height="current" viewBox="0 0 25 24" fill="none" xmlns="http://www.w3.org/2000/svg">
  <mask id="a" style="mask-type:alpha" maskUnits="userSpaceOnUse" x="0" y="0" width="25" height="24">
    <path fill="#D9D9D9" d="M.25 0h24v24h-24z"/>
  </mask>
  <g mask="url(#a)">
    <path d="M12.25 22a9.738 9.738 0 0 1-3.9-.788 10.099 10.099 0 0 1-3.175-2.137c-.9-.9-1.612-1.958-2.137-3.175A9.738 9.738 0 0 1 2.25 12a9.74 9.74 0 0 1 .788-3.9 10.099 10.099 0 0 1 2.137-3.175c.9-.9 1.958-1.612 3.175-2.137A9.738 9.738 0 0 1 12.25 2a9.74 9.74 0 0 1 3.9.788 10.098 10.098 0 0 1 3.175 2.137c.9.9 1.613 1.958 2.137 3.175a9.738 9.738 0 0 1 .788 3.9 9.738 9.738 0 0 1-.788 3.9 10.098 10.098 0 0 1-2.137 3.175c-.9.9-1.958 1.613-3.175 2.137a9.738 9.738 0 0 1-3.9.788Zm0-2a7.854 7.854 0 0 0 4.9-1.675L15.725 16.9a5.75 5.75 0 0 1-1.612.813A6.005 6.005 0 0 1 12.25 18c-1.667 0-3.083-.583-4.25-1.75-1.167-1.167-1.75-2.583-1.75-4.25 0-1.667.583-3.083 1.75-4.25C9.167 6.583 10.583 6 12.25 6c1.667 0 3.083.583 4.25 1.75 1.167 1.167 1.75 2.583 1.75 4.25 0 .65-.1 1.275-.3 1.875-.2.6-.475 1.142-.825 1.625l1.425 1.425a8.169 8.169 0 0 0 1.25-2.275c.3-.833.45-1.717.45-2.65 0-2.233-.775-4.125-2.325-5.675C16.375 4.775 14.483 4 12.25 4c-2.233 0-4.125.775-5.675 2.325C5.025 7.875 4.25 9.767 4.25 12c0 2.233.775 4.125 2.325 5.675C8.125 19.225 10.017 20 12.25 20Zm0-4c.367 0 .72-.046 1.063-.137a3.68 3.68 0 0 0 .962-.413l-1.525-1.525a.917.917 0 0 1-.25.063 2.521 2.521 0 0 1-.25.012c-.55 0-1.02-.196-1.412-.588A1.926 1.926 0 0 1 10.25 12c0-.55.196-1.02.588-1.412A1.926 1.926 0 0 1 12.25 10c.55 0 1.02.196 1.412.588.392.391.588.862.588 1.412 0 .1-.004.196-.012.287a.929.929 0 0 1-.063.263l1.5 1.5A3.853 3.853 0 0 0 16.25 12c0-1.1-.392-2.042-1.175-2.825C14.292 8.392 13.35 8 12.25 8s-2.042.392-2.825 1.175C8.642 9.958 8.25 10.9 8.25 12s.392 2.042 1.175 2.825C10.208 15.608 11.15 16 12.25 16Z" fill="currentColor"/>
  </g>
</svg>
