<svg xmlns="http://www.w3.org/2000/svg" width="current" height="current" viewBox="0 0 24 24" fill="none">
  <mask id="a" style="mask-type:alpha" maskUnits="userSpaceOnUse" x="0" y="0" width="24" height="24">
    <path fill="#D9D9D9" d="M0 0h24v24H0z"/>
  </mask>
  <g mask="url(#a)">
    <path d="M11 20.95c-2.017-.25-3.688-1.13-5.013-2.637C4.662 16.803 4 15.033 4 13c0-1.1.217-2.154.65-3.162A7.797 7.797 0 0 1 6.5 7.2l1.425 1.425A5.635 5.635 0 0 0 6.487 10.6 5.97 5.97 0 0 0 6 13c0 1.467.467 2.762 1.4 3.887.933 1.125 2.133 1.813 3.6 2.063v2Zm2 0v-2c1.45-.267 2.646-.958 3.587-2.075C17.53 15.758 18 14.467 18 13c0-1.667-.583-3.083-1.75-4.25C15.083 7.583 13.667 7 12 7h-.075l1.1 1.1-1.4 1.4-3.5-3.5 3.5-3.5 1.4 1.4-1.1 1.1H12c2.233 0 4.125.775 5.675 2.325C19.225 8.875 20 10.767 20 13c0 2.017-.663 3.78-1.988 5.288-1.325 1.508-2.995 2.395-5.012 2.662Z" fill="currentColor"/>
  </g>
</svg>
