<svg xmlns="http://www.w3.org/2000/svg" width="100%" height="100%" viewBox="0 0 18 19" fill="none">
  <path d="M8.854 18.333c-.333 0-.653-.062-.958-.187a2.452 2.452 0 0 1-.813-.542l-4.25-4.27.625-.646c.222-.223.483-.372.781-.448.299-.077.594-.073.886.01l1.375.396V5.833c0-.236.08-.434.24-.593.16-.16.357-.24.593-.24s.434.08.594.24c.16.16.24.357.24.593v9.021l-2.021-.562 2.125 2.125a.91.91 0 0 0 .26.177.756.756 0 0 0 .323.073h3.48c.457 0 .85-.164 1.176-.49.327-.326.49-.719.49-1.177v-3.333c0-.236.08-.434.24-.594.16-.16.357-.24.593-.24s.434.08.594.24c.16.16.24.358.24.594V15a3.21 3.21 0 0 1-.98 2.354 3.21 3.21 0 0 1-2.354.98H8.854ZM9 12.5V9.167c0-.236.08-.434.24-.594.16-.16.357-.24.593-.24s.434.08.594.24c.16.16.24.358.24.594V12.5H9Zm2.5 0V10c0-.236.08-.434.24-.594.16-.16.357-.24.593-.24s.434.08.594.24c.16.16.24.358.24.594v2.5H11.5Zm5.833-6.667h-4.166v-1.25h2.416a10.047 10.047 0 0 0-3.062-1.854A9.767 9.767 0 0 0 9 2.083a9.767 9.767 0 0 0-3.521.646 10.046 10.046 0 0 0-3.063 1.854h2.417v1.25H.667V1.667h1.25v1.687c1-.82 2.104-1.444 3.312-1.875a11.15 11.15 0 0 1 3.77-.646c1.306 0 2.563.216 3.772.646a11.032 11.032 0 0 1 3.312 1.875V1.667h1.25v4.166Z" fill="currentColor"/>
</svg>
