<svg xmlns="http://www.w3.org/2000/svg" width="100%" height="100%" viewBox="0 0 32 32" fill="none">
  <mask id="a" style="mask-type:alpha" maskUnits="userSpaceOnUse" x="0" y="0" width="32" height="32">
    <path fill="#fff" d="M0 0h32v32H0z"/>
  </mask>
  <g mask="url(#a)">
    <path d="M5.333 26.667V24H9l-.533-.466c-1.156-1.023-1.967-2.19-2.434-3.5a11.755 11.755 0 0 1-.7-3.967c0-2.467.74-4.661 2.217-6.584 1.478-1.922 3.406-3.194 5.783-3.816v2.8a7.904 7.904 0 0 0-3.866 2.95A7.891 7.891 0 0 0 8 16.067c0 1 .189 1.972.567 2.916.377.945.966 1.817 1.766 2.617l.334.333v-3.266h2.666v8h-8Zm13.334-.334v-2.8a7.905 7.905 0 0 0 3.866-2.95A7.891 7.891 0 0 0 24 15.934c0-1-.189-1.972-.567-2.916-.378-.945-.966-1.817-1.766-2.617l-.334-.333v3.267h-2.666v-8h8V8H23l.533.467c1.09 1.089 1.884 2.272 2.384 3.55s.75 2.583.75 3.917c0 2.466-.74 4.66-2.217 6.583-1.478 1.922-3.406 3.194-5.783 3.817Z" fill="currentColor"/>
  </g>
</svg>
