<svg xmlns="http://www.w3.org/2000/svg" width="100%" height="100%" viewBox="0 0 16 16" fill="none">
  <mask id="a" style="mask-type:alpha" maskUnits="userSpaceOnUse" x="0" y="0" width="16" height="16">
    <path fill="#D9D9D9" d="M0 0h16v16H0z"/>
  </mask>
  <g mask="url(#a)">
    <path d="M2.667 13.333c-.367 0-.68-.13-.942-.392A1.284 1.284 0 0 1 1.333 12V4c0-.367.13-.68.392-.942.261-.26.575-.391.942-.391h8c.366 0 .68.13.941.391.261.261.392.575.392.942v3l2.667-2.667v7.333L12 9v3c0 .367-.13.68-.392.941a1.284 1.284 0 0 1-.941.392h-8Zm0-1.333h8V4h-8v8Z" fill="currentColor"/>
  </g>
</svg>
